<svg xmlns="http://www.w3.org/2000/svg" xmlns:xlink="http://www.w3.org/1999/xlink" width="1000" zoomAndPan="magnify" viewBox="0 0 750 749.999995" height="1000" preserveAspectRatio="xMidYMid meet" version="1.0"><defs><clipPath id="e343abc8d6"><path d="M 131 129.640625 L 620 129.640625 L 620 749.890625 L 131 749.890625 Z M 131 129.640625 " clip-rule="nonzero"/></clipPath></defs><g clip-path="url(#e343abc8d6)"><path fill="#156cdd" d="M 375.757812 129.640625 C 371.765625 129.640625 367.773438 129.738281 363.785156 129.9375 C 359.796875 130.132812 355.816406 130.425781 351.84375 130.816406 C 347.871094 131.207031 343.90625 131.695312 339.957031 132.28125 C 336.007812 132.867188 332.074219 133.550781 328.160156 134.328125 C 324.242188 135.105469 320.347656 135.980469 316.472656 136.949219 C 312.601562 137.917969 308.753906 138.984375 304.933594 140.140625 C 301.109375 141.300781 297.320312 142.550781 293.558594 143.894531 C 289.800781 145.242188 286.078125 146.675781 282.386719 148.203125 C 278.699219 149.730469 275.046875 151.347656 271.4375 153.054688 C 267.828125 154.757812 264.261719 156.554688 260.742188 158.433594 C 257.21875 160.316406 253.746094 162.28125 250.320312 164.332031 C 246.898438 166.382812 243.523438 168.519531 240.203125 170.734375 C 236.882812 172.953125 233.621094 175.25 230.414062 177.628906 C 227.207031 180.003906 224.058594 182.457031 220.972656 184.992188 C 217.882812 187.523438 214.863281 190.128906 211.902344 192.808594 C 208.945312 195.488281 206.054688 198.238281 203.230469 201.058594 C 200.40625 203.882812 197.652344 206.769531 194.972656 209.726562 C 192.289062 212.683594 189.683594 215.707031 187.148438 218.789062 C 184.617188 221.875 182.160156 225.019531 179.78125 228.226562 C 177.402344 231.429688 175.105469 234.691406 172.886719 238.011719 C 170.667969 241.328125 168.53125 244.699219 166.480469 248.121094 C 164.425781 251.542969 162.457031 255.015625 160.578125 258.535156 C 158.695312 262.054688 156.898438 265.617188 155.191406 269.226562 C 153.484375 272.832031 151.867188 276.480469 150.339844 280.167969 C 148.8125 283.851562 147.375 287.574219 146.027344 291.332031 C 144.683594 295.089844 143.429688 298.878906 142.273438 302.695312 C 141.113281 306.515625 140.046875 310.359375 139.078125 314.230469 C 138.109375 318.101562 137.234375 321.996094 136.453125 325.90625 C 135.675781 329.820312 134.992188 333.753906 134.40625 337.699219 C 133.820312 341.648438 133.332031 345.605469 132.941406 349.578125 C 132.550781 353.550781 132.253906 357.527344 132.058594 361.511719 C 131.863281 365.5 131.765625 369.488281 131.765625 373.476562 C 131.765625 533.582031 330.117188 749.890625 375.757812 749.890625 C 421.402344 749.890625 619.753906 539.652344 619.753906 373.476562 C 619.753906 369.488281 619.65625 365.5 619.457031 361.511719 C 619.261719 357.527344 618.96875 353.550781 618.578125 349.578125 C 618.1875 345.605469 617.699219 341.648438 617.113281 337.699219 C 616.527344 333.753906 615.84375 329.820312 615.066406 325.90625 C 614.285156 321.996094 613.410156 318.101562 612.441406 314.230469 C 611.46875 310.359375 610.40625 306.515625 609.246094 302.695312 C 608.085938 298.878906 606.835938 295.089844 605.488281 291.332031 C 604.144531 287.574219 602.707031 283.851562 601.179688 280.167969 C 599.652344 276.480469 598.035156 272.832031 596.328125 269.226562 C 594.621094 265.617188 592.824219 262.054688 590.941406 258.535156 C 589.058594 255.015625 587.09375 251.542969 585.039062 248.121094 C 582.988281 244.699219 580.851562 241.328125 578.632812 238.011719 C 576.414062 234.691406 574.117188 231.429688 571.738281 228.226562 C 569.359375 225.019531 566.902344 221.875 564.367188 218.789062 C 561.835938 215.707031 559.226562 212.683594 556.546875 209.726562 C 553.863281 206.769531 551.113281 203.882812 548.289062 201.058594 C 545.464844 198.238281 542.574219 195.488281 539.617188 192.808594 C 536.65625 190.128906 533.632812 187.523438 530.546875 184.992188 C 527.460938 182.457031 524.3125 180.003906 521.105469 177.628906 C 517.898438 175.25 514.636719 172.953125 511.316406 170.734375 C 507.996094 168.519531 504.621094 166.382812 501.195312 164.332031 C 497.773438 162.28125 494.296875 160.316406 490.777344 158.433594 C 487.253906 156.554688 483.691406 154.757812 480.078125 153.054688 C 476.46875 151.347656 472.820312 149.730469 469.132812 148.203125 C 465.441406 146.675781 461.71875 145.242188 457.957031 143.894531 C 454.199219 142.550781 450.40625 141.300781 446.585938 140.140625 C 442.765625 138.984375 438.917969 137.917969 435.042969 136.949219 C 431.171875 135.980469 427.277344 135.105469 423.359375 134.328125 C 419.445312 133.550781 415.511719 132.867188 411.558594 132.28125 C 407.609375 131.695312 403.648438 131.207031 399.675781 130.816406 C 395.699219 130.425781 391.71875 130.132812 387.730469 129.9375 C 383.742188 129.738281 379.753906 129.640625 375.757812 129.640625 Z M 374.59375 556.0625 C 371.75 556.0625 368.910156 555.996094 366.070312 555.855469 C 363.226562 555.714844 360.390625 555.507812 357.5625 555.226562 C 354.730469 554.949219 351.910156 554.601562 349.097656 554.183594 C 346.28125 553.765625 343.480469 553.28125 340.691406 552.726562 C 337.902344 552.171875 335.128906 551.550781 332.371094 550.859375 C 329.609375 550.167969 326.871094 549.410156 324.148438 548.585938 C 321.425781 547.761719 318.726562 546.871094 316.050781 545.910156 C 313.371094 544.953125 310.71875 543.933594 308.09375 542.84375 C 305.464844 541.757812 302.863281 540.605469 300.292969 539.390625 C 297.722656 538.175781 295.183594 536.898438 292.675781 535.558594 C 290.167969 534.21875 287.691406 532.816406 285.253906 531.355469 C 282.8125 529.894531 280.410156 528.375 278.046875 526.796875 C 275.683594 525.214844 273.359375 523.582031 271.074219 521.886719 C 268.789062 520.195312 266.546875 518.445312 264.347656 516.644531 C 262.152344 514.839844 259.996094 512.984375 257.890625 511.074219 C 255.78125 509.167969 253.722656 507.207031 251.710938 505.199219 C 249.703125 503.1875 247.742188 501.128906 245.832031 499.023438 C 243.921875 496.917969 242.0625 494.765625 240.261719 492.570312 C 238.457031 490.371094 236.707031 488.132812 235.011719 485.847656 C 233.316406 483.566406 231.679688 481.242188 230.101562 478.878906 C 228.519531 476.515625 227 474.117188 225.539062 471.679688 C 224.074219 469.242188 222.675781 466.769531 221.332031 464.261719 C 219.992188 461.753906 218.714844 459.21875 217.5 456.648438 C 216.28125 454.078125 215.128906 451.480469 214.042969 448.855469 C 212.953125 446.230469 211.929688 443.578125 210.972656 440.902344 C 210.011719 438.226562 209.121094 435.527344 208.296875 432.808594 C 207.46875 430.089844 206.710938 427.347656 206.019531 424.59375 C 205.332031 421.835938 204.707031 419.0625 204.152344 416.277344 C 203.597656 413.488281 203.113281 410.6875 202.695312 407.875 C 202.277344 405.066406 201.929688 402.246094 201.648438 399.417969 C 201.371094 396.589844 201.160156 393.753906 201.023438 390.914062 C 200.882812 388.078125 200.8125 385.238281 200.8125 382.394531 C 200.8125 379.550781 200.882812 376.710938 201.023438 373.871094 C 201.160156 371.035156 201.371094 368.199219 201.648438 365.371094 C 201.929688 362.542969 202.277344 359.722656 202.695312 356.910156 C 203.113281 354.101562 203.597656 351.300781 204.152344 348.511719 C 204.707031 345.726562 205.332031 342.953125 206.019531 340.195312 C 206.710938 337.4375 207.46875 334.699219 208.296875 331.980469 C 209.121094 329.261719 210.011719 326.5625 210.972656 323.886719 C 211.929688 321.210938 212.953125 318.558594 214.042969 315.933594 C 215.128906 313.308594 216.28125 310.710938 217.5 308.140625 C 218.714844 305.570312 219.992188 303.035156 221.332031 300.527344 C 222.671875 298.019531 224.074219 295.546875 225.539062 293.109375 C 227 290.671875 228.519531 288.269531 230.101562 285.910156 C 231.679688 283.546875 233.316406 281.222656 235.011719 278.9375 C 236.707031 276.65625 238.457031 274.417969 240.261719 272.21875 C 242.0625 270.023438 243.921875 267.871094 245.832031 265.765625 C 247.742188 263.660156 249.703125 261.601562 251.710938 259.589844 C 253.722656 257.582031 255.78125 255.621094 257.890625 253.714844 C 259.996094 251.804688 262.152344 249.949219 264.347656 248.144531 C 266.546875 246.34375 268.789062 244.59375 271.074219 242.902344 C 273.359375 241.207031 275.683594 239.570312 278.046875 237.992188 C 280.410156 236.414062 282.8125 234.894531 285.253906 233.433594 C 287.691406 231.972656 290.167969 230.570312 292.675781 229.230469 C 295.183594 227.890625 297.722656 226.613281 300.292969 225.398438 C 302.863281 224.183594 305.464844 223.03125 308.09375 221.945312 C 310.71875 220.855469 313.371094 219.832031 316.050781 218.875 C 318.726562 217.917969 321.425781 217.027344 324.148438 216.203125 C 326.871094 215.378906 329.609375 214.621094 332.371094 213.929688 C 335.128906 213.238281 337.902344 212.617188 340.691406 212.0625 C 343.480469 211.507812 346.28125 211.019531 349.097656 210.605469 C 351.910156 210.1875 354.730469 209.839844 357.5625 209.558594 C 360.390625 209.28125 363.226562 209.074219 366.066406 208.933594 C 368.910156 208.792969 371.75 208.722656 374.59375 208.722656 C 377.441406 208.722656 380.28125 208.792969 383.121094 208.933594 C 385.964844 209.074219 388.796875 209.28125 391.628906 209.558594 C 394.460938 209.839844 397.28125 210.1875 400.09375 210.605469 C 402.90625 211.019531 405.710938 211.507812 408.5 212.0625 C 411.289062 212.617188 414.0625 213.238281 416.820312 213.929688 C 419.578125 214.621094 422.320312 215.378906 425.042969 216.203125 C 427.761719 217.027344 430.464844 217.917969 433.140625 218.875 C 435.820312 219.832031 438.472656 220.855469 441.097656 221.945312 C 443.726562 223.03125 446.324219 224.183594 448.898438 225.398438 C 451.46875 226.613281 454.007812 227.890625 456.515625 229.230469 C 459.023438 230.570312 461.496094 231.972656 463.9375 233.433594 C 466.375 234.894531 468.777344 236.414062 471.144531 237.992188 C 473.507812 239.570312 475.832031 241.207031 478.117188 242.902344 C 480.402344 244.59375 482.644531 246.34375 484.839844 248.144531 C 487.039062 249.949219 489.191406 251.804688 491.300781 253.714844 C 493.40625 255.621094 495.46875 257.582031 497.476562 259.589844 C 499.488281 261.601562 501.449219 263.660156 503.359375 265.765625 C 505.269531 267.871094 507.125 270.023438 508.929688 272.21875 C 510.734375 274.417969 512.484375 276.65625 514.179688 278.9375 C 515.871094 281.222656 517.511719 283.546875 519.089844 285.910156 C 520.671875 288.269531 522.191406 290.671875 523.652344 293.109375 C 525.117188 295.546875 526.515625 298.019531 527.859375 300.527344 C 529.199219 303.035156 530.476562 305.570312 531.691406 308.140625 C 532.910156 310.710938 534.0625 313.308594 535.148438 315.933594 C 536.238281 318.558594 537.261719 321.210938 538.21875 323.886719 C 539.175781 326.5625 540.070312 329.261719 540.894531 331.980469 C 541.71875 334.699219 542.480469 337.4375 543.167969 340.195312 C 543.859375 342.953125 544.484375 345.726562 545.039062 348.511719 C 545.59375 351.300781 546.078125 354.101562 546.496094 356.910156 C 546.914062 359.722656 547.261719 362.542969 547.539062 365.371094 C 547.820312 368.199219 548.027344 371.035156 548.167969 373.871094 C 548.308594 376.710938 548.378906 379.550781 548.378906 382.394531 C 548.378906 385.238281 548.308594 388.078125 548.167969 390.914062 C 548.027344 393.753906 547.820312 396.589844 547.539062 399.417969 C 547.261719 402.246094 546.914062 405.066406 546.496094 407.875 C 546.078125 410.6875 545.59375 413.488281 545.039062 416.277344 C 544.484375 419.0625 543.859375 421.835938 543.167969 424.59375 C 542.480469 427.347656 541.71875 430.089844 540.894531 432.808594 C 540.070312 435.527344 539.175781 438.226562 538.21875 440.902344 C 537.261719 443.578125 536.238281 446.230469 535.148438 448.855469 C 534.0625 451.480469 532.910156 454.078125 531.691406 456.648438 C 530.476562 459.21875 529.199219 461.753906 527.859375 464.261719 C 526.515625 466.769531 525.117188 469.242188 523.652344 471.679688 C 522.191406 474.117188 520.671875 476.515625 519.089844 478.878906 C 517.511719 481.242188 515.871094 483.566406 514.179688 485.847656 C 512.484375 488.132812 510.734375 490.371094 508.929688 492.570312 C 507.125 494.765625 505.269531 496.917969 503.359375 499.023438 C 501.449219 501.128906 499.488281 503.1875 497.476562 505.199219 C 495.46875 507.207031 493.40625 509.167969 491.300781 511.074219 C 489.191406 512.984375 487.039062 514.839844 484.839844 516.644531 C 482.644531 518.445312 480.402344 520.195312 478.117188 521.886719 C 475.832031 523.582031 473.507812 525.214844 471.144531 526.796875 C 468.777344 528.375 466.375 529.894531 463.9375 531.355469 C 461.496094 532.816406 459.023438 534.21875 456.515625 535.558594 C 454.007812 536.898438 451.46875 538.175781 448.898438 539.390625 C 446.324219 540.605469 443.726562 541.757812 441.097656 542.84375 C 438.472656 543.933594 435.820312 544.953125 433.140625 545.910156 C 430.464844 546.871094 427.761719 547.761719 425.042969 548.585938 C 422.320312 549.410156 419.578125 550.167969 416.820312 550.859375 C 414.0625 551.550781 411.289062 552.171875 408.5 552.726562 C 405.710938 553.28125 402.90625 553.765625 400.09375 554.183594 C 397.28125 554.601562 394.460938 554.949219 391.628906 555.226562 C 388.796875 555.507812 385.964844 555.714844 383.121094 555.855469 C 380.28125 555.996094 377.441406 556.0625 374.59375 556.0625 Z M 374.59375 556.0625 " fill-opacity="1" fill-rule="nonzero"/></g><path fill="#0795ff" d="M 374.59375 242.449219 C 374.304688 242.457031 374.015625 242.480469 373.726562 242.523438 C 373.441406 242.566406 373.15625 242.628906 372.875 242.707031 C 372.597656 242.789062 372.324219 242.886719 372.054688 243.003906 C 371.789062 243.117188 371.53125 243.25 371.28125 243.398438 C 371.03125 243.550781 370.792969 243.714844 370.5625 243.894531 C 370.335938 244.074219 370.117188 244.269531 369.914062 244.476562 C 369.710938 244.683594 369.523438 244.90625 369.347656 245.136719 C 369.175781 245.371094 369.015625 245.613281 368.871094 245.867188 C 368.730469 246.121094 368.601562 246.382812 368.492188 246.652344 C 368.386719 246.921875 368.292969 247.195312 368.222656 247.476562 C 368.148438 247.757812 368.09375 248.042969 368.058594 248.332031 C 368.019531 248.621094 368.003906 248.910156 368.003906 249.203125 C 368.007812 249.492188 368.027344 249.78125 368.066406 250.070312 C 368.105469 250.359375 368.164062 250.644531 368.238281 250.925781 C 368.316406 251.207031 368.410156 251.480469 368.519531 251.75 C 368.632812 252.015625 368.761719 252.277344 368.90625 252.53125 C 371.964844 257.585938 374.316406 262.949219 375.960938 268.625 C 377.601562 274.300781 378.484375 280.089844 378.605469 285.996094 C 378.613281 287.117188 378.59375 288.234375 378.546875 289.355469 C 378.503906 290.472656 378.429688 291.589844 378.328125 292.703125 C 378.230469 293.820312 378.101562 294.929688 377.949219 296.039062 C 377.792969 297.148438 377.613281 298.253906 377.40625 299.355469 C 377.199219 300.453125 376.964844 301.546875 376.703125 302.636719 C 376.441406 303.726562 376.15625 304.808594 375.839844 305.882812 C 375.527344 306.957031 375.1875 308.023438 374.824219 309.082031 C 374.457031 310.140625 374.066406 311.1875 373.652344 312.226562 C 373.234375 313.265625 372.792969 314.296875 372.328125 315.3125 C 371.859375 316.332031 371.371094 317.335938 370.855469 318.332031 C 370.339844 319.324219 369.800781 320.308594 369.238281 321.273438 C 368.675781 322.242188 368.085938 323.195312 367.476562 324.136719 C 366.871094 325.074219 366.238281 326 365.582031 326.90625 C 364.929688 327.816406 364.253906 328.710938 363.554688 329.585938 C 362.859375 330.460938 362.140625 331.320312 361.398438 332.160156 C 360.660156 333 359.902344 333.824219 359.121094 334.628906 C 358.34375 335.433594 357.542969 336.21875 356.726562 336.984375 C 355.910156 337.75 355.074219 338.492188 354.21875 339.21875 C 353.367188 339.941406 352.496094 340.648438 351.609375 341.328125 C 350.71875 342.011719 349.816406 342.671875 348.894531 343.3125 C 347.976562 343.949219 347.039062 344.566406 346.089844 345.160156 C 345.140625 345.753906 344.175781 346.324219 343.199219 346.871094 C 342.222656 347.414062 341.230469 347.9375 340.226562 348.4375 C 339.226562 348.933594 338.210938 349.410156 337.183594 349.859375 C 336.15625 350.308594 335.121094 350.730469 334.074219 351.128906 C 333.027344 351.527344 331.972656 351.902344 330.90625 352.25 C 329.84375 352.597656 328.769531 352.917969 327.691406 353.214844 C 326.609375 353.511719 325.523438 353.777344 324.429688 354.023438 C 323.335938 354.265625 322.234375 354.480469 321.132812 354.667969 C 320.027344 354.859375 318.917969 355.023438 317.808594 355.15625 C 316.695312 355.292969 315.582031 355.402344 314.464844 355.484375 C 313.347656 355.5625 312.226562 355.617188 311.109375 355.644531 C 308.488281 355.652344 305.875 355.507812 303.273438 355.214844 C 300.667969 354.921875 298.089844 354.476562 295.539062 353.882812 C 292.984375 353.289062 290.476562 352.550781 288.007812 351.667969 C 285.542969 350.785156 283.136719 349.761719 280.785156 348.597656 C 278.4375 347.4375 276.164062 346.144531 273.96875 344.71875 C 271.769531 343.292969 269.660156 341.746094 267.640625 340.078125 C 265.621094 338.40625 263.707031 336.628906 261.894531 334.734375 C 260.082031 332.84375 258.382812 330.855469 256.800781 328.769531 C 256.613281 328.539062 256.414062 328.324219 256.199219 328.121094 C 255.988281 327.917969 255.761719 327.730469 255.523438 327.558594 C 255.285156 327.382812 255.035156 327.226562 254.777344 327.085938 C 254.519531 326.941406 254.253906 326.820312 253.976562 326.710938 C 253.703125 326.605469 253.421875 326.515625 253.136719 326.445312 C 252.851562 326.375 252.5625 326.320312 252.269531 326.289062 C 251.976562 326.253906 251.679688 326.238281 251.386719 326.242188 C 251.089844 326.246094 250.796875 326.269531 250.507812 326.3125 C 250.214844 326.355469 249.925781 326.414062 249.640625 326.496094 C 249.359375 326.574219 249.082031 326.671875 248.808594 326.785156 C 248.539062 326.902344 248.273438 327.035156 248.019531 327.183594 C 247.765625 327.332031 247.523438 327.496094 247.289062 327.675781 C 247.054688 327.855469 246.835938 328.050781 246.628906 328.261719 C 246.421875 328.46875 246.226562 328.691406 246.046875 328.925781 C 245.867188 329.160156 245.703125 329.402344 245.554688 329.65625 C 245.410156 329.914062 245.277344 330.175781 245.164062 330.449219 C 241.421875 339.734375 238.722656 349.308594 237.0625 359.183594 C 235.40625 369.054688 234.832031 378.988281 235.335938 388.984375 C 235.441406 391.253906 235.601562 393.519531 235.816406 395.78125 C 236.03125 398.046875 236.304688 400.300781 236.628906 402.550781 C 236.953125 404.800781 237.332031 407.039062 237.765625 409.269531 C 238.203125 411.5 238.691406 413.71875 239.230469 415.925781 C 239.773438 418.132812 240.371094 420.328125 241.019531 422.503906 C 241.667969 424.683594 242.371094 426.84375 243.125 428.988281 C 243.878906 431.132812 244.683594 433.253906 245.542969 435.359375 C 246.402344 437.464844 247.308594 439.546875 248.269531 441.609375 C 249.226562 443.667969 250.234375 445.703125 251.292969 447.714844 C 252.351562 449.726562 253.460938 451.710938 254.613281 453.667969 C 255.769531 455.625 256.972656 457.554688 258.222656 459.453125 C 259.46875 461.351562 260.765625 463.222656 262.105469 465.058594 C 263.445312 466.894531 264.828125 468.695312 266.253906 470.464844 C 267.683594 472.234375 269.152344 473.964844 270.664062 475.664062 C 272.175781 477.359375 273.730469 479.019531 275.324219 480.640625 C 276.917969 482.265625 278.546875 483.847656 280.21875 485.390625 C 281.886719 486.929688 283.59375 488.433594 285.335938 489.890625 C 287.082031 491.351562 288.859375 492.765625 290.671875 494.140625 C 292.480469 495.511719 294.328125 496.839844 296.203125 498.125 C 298.082031 499.40625 299.988281 500.644531 301.925781 501.835938 C 303.859375 503.027344 305.824219 504.167969 307.820312 505.265625 C 309.8125 506.359375 311.828125 507.40625 313.875 508.402344 C 315.917969 509.398438 317.984375 510.34375 320.074219 511.242188 C 322.164062 512.136719 324.273438 512.980469 326.402344 513.777344 C 328.535156 514.570312 330.683594 515.3125 332.851562 516 C 335.019531 516.6875 337.199219 517.324219 339.398438 517.90625 C 341.597656 518.492188 343.808594 519.019531 346.03125 519.496094 C 348.253906 519.972656 350.488281 520.390625 352.734375 520.757812 C 354.976562 521.125 357.230469 521.4375 359.488281 521.695312 C 361.746094 521.953125 364.011719 522.152344 366.28125 522.300781 C 368.550781 522.449219 370.820312 522.539062 373.09375 522.578125 C 375.371094 522.613281 377.644531 522.59375 379.914062 522.519531 C 382.1875 522.445312 384.457031 522.316406 386.722656 522.132812 C 388.992188 521.949219 391.25 521.707031 393.507812 521.414062 C 395.761719 521.121094 398.007812 520.769531 400.246094 520.367188 C 402.484375 519.964844 404.710938 519.507812 406.925781 518.992188 C 409.140625 518.480469 411.34375 517.917969 413.53125 517.296875 C 415.71875 516.679688 417.890625 516.007812 420.046875 515.28125 C 422.203125 514.558594 424.339844 513.78125 426.457031 512.953125 C 428.574219 512.125 430.667969 511.242188 432.742188 510.3125 C 434.820312 509.382812 436.871094 508.402344 438.894531 507.371094 C 440.921875 506.34375 442.921875 505.261719 444.898438 504.136719 C 446.871094 503.007812 448.816406 501.832031 450.734375 500.609375 C 452.652344 499.386719 454.539062 498.121094 456.394531 496.804688 C 458.25 495.492188 460.070312 494.132812 461.859375 492.730469 C 463.648438 491.328125 465.402344 489.882812 467.125 488.394531 C 468.84375 486.90625 470.523438 485.378906 472.167969 483.808594 C 473.8125 482.238281 475.417969 480.628906 476.984375 478.984375 C 478.550781 477.335938 480.074219 475.648438 481.558594 473.929688 C 483.042969 472.207031 484.484375 470.449219 485.882812 468.65625 C 487.28125 466.863281 488.632812 465.039062 489.945312 463.179688 C 491.253906 461.324219 492.515625 459.433594 493.734375 457.515625 C 494.953125 455.597656 496.121094 453.648438 497.246094 451.671875 C 498.367188 449.695312 499.441406 447.691406 500.464844 445.664062 C 501.492188 443.636719 502.464844 441.582031 503.390625 439.507812 C 504.316406 437.433594 505.191406 435.335938 506.011719 433.214844 C 506.835938 431.097656 507.609375 428.960938 508.328125 426.804688 C 509.046875 424.648438 509.710938 422.476562 510.324219 420.289062 C 510.9375 418.097656 511.496094 415.898438 512.003906 413.679688 C 512.507812 411.464844 512.960938 409.238281 513.359375 407 C 513.753906 404.765625 514.097656 402.519531 514.386719 400.265625 C 514.675781 398.007812 514.90625 395.75 515.085938 393.484375 C 515.261719 391.21875 515.386719 388.949219 515.453125 386.679688 C 515.519531 384.40625 515.53125 382.136719 515.488281 379.863281 C 515.445312 377.589844 515.347656 375.320312 515.195312 373.054688 C 515.039062 370.785156 514.832031 368.523438 514.566406 366.265625 C 514.304688 364.007812 513.984375 361.761719 513.613281 359.519531 C 513.238281 357.277344 512.8125 355.046875 512.328125 352.824219 C 511.847656 350.601562 511.3125 348.394531 510.722656 346.199219 C 510.132812 344.007812 509.488281 341.828125 508.792969 339.664062 C 508.097656 337.5 507.347656 335.355469 506.550781 333.226562 C 505.75 331.101562 504.898438 328.992188 503.996094 326.90625 C 503.089844 324.820312 502.136719 322.757812 501.136719 320.71875 C 500.132812 318.679688 499.078125 316.667969 497.976562 314.679688 C 496.875 312.691406 495.726562 310.730469 494.53125 308.796875 C 493.332031 306.867188 492.089844 304.964844 490.800781 303.089844 C 489.511719 301.21875 488.175781 299.378906 486.796875 297.574219 C 485.417969 295.765625 483.996094 293.992188 482.53125 292.257812 C 481.066406 290.519531 479.558594 288.816406 478.011719 287.152344 C 476.460938 285.488281 474.875 283.863281 473.246094 282.273438 C 471.621094 280.6875 469.953125 279.140625 468.25 277.636719 C 466.546875 276.128906 464.808594 274.664062 463.035156 273.242188 C 461.261719 271.820312 459.453125 270.445312 457.613281 269.109375 C 455.773438 267.777344 453.898438 266.488281 451.996094 265.246094 C 450.089844 264.003906 448.160156 262.808594 446.195312 261.65625 C 444.234375 260.507812 442.246094 259.410156 440.230469 258.355469 C 438.214844 257.304688 436.171875 256.304688 434.109375 255.351562 C 432.042969 254.398438 429.957031 253.496094 427.847656 252.644531 C 425.742188 251.792969 423.613281 250.992188 421.464844 250.246094 C 419.316406 249.5 417.152344 248.804688 414.972656 248.160156 C 412.792969 247.519531 410.59375 246.929688 408.386719 246.394531 C 406.175781 245.859375 403.953125 245.375 401.71875 244.949219 C 399.488281 244.523438 397.246094 244.148438 394.992188 243.832031 C 392.742188 243.511719 390.484375 243.25 388.21875 243.039062 C 385.953125 242.832031 383.6875 242.675781 381.414062 242.578125 C 379.140625 242.480469 376.871094 242.4375 374.59375 242.449219 Z M 374.59375 242.449219 " fill-opacity="1" fill-rule="nonzero"/></svg>